<!-- Generator: Adobe Illustrator 22.1.0, SVG Export Plug-In  -->
<svg version="1.1"
	 xmlns="http://www.w3.org/2000/svg" xmlns:xlink="http://www.w3.org/1999/xlink" xmlns:a="http://ns.adobe.com/AdobeSVGViewerExtensions/3.0/"
	 x="0px" y="0px" width="181.5px" height="54.5px" viewBox="0 0 181.5 54.5" style="enable-background:new 0 0 181.5 54.5;"
	 xml:space="preserve">
<style type="text/css">
	.st0{fill:#FFFFFF;}
</style>
<defs>
</defs>
<path class="st0" d="M80.5,8.1c-1.6-0.4-2.9-0.6-3.9-0.6c-1.1,0-2,0.4-2.6,1.1c-0.6,0.7-0.9,1.8-0.9,3.2v1.1h5.3V20H73v21H62.5V20
	h-4.8v-7.1h4.8v-0.5c0-2.1,0.4-4.1,1.2-5.9c0.8-1.9,2.2-3.4,4-4.6C69.6,0.6,72.1,0,75.2,0c1.8,0,3.5,0.2,5.3,0.6V8.1z"/>
<path class="st0" d="M106,39.3c-1.1,0.5-2.6,1-4.5,1.5c-1.9,0.5-3.7,0.7-5.5,0.7c-7.6,0-11.3-3.7-11.3-11.1V18.6h-4.8v-1.8L94,2.4
	h1.2v8.9h10v7.3h-10v9.5c0,1.1,0.1,2,0.2,2.7c0.1,0.7,0.5,1.2,1.2,1.7c0.6,0.5,1.6,0.7,2.9,0.7c1.7,0,3.9-0.7,6.6-2.1V39.3z"/>
<path class="st0" d="M132.4,26.1c0-2.4-0.5-4.2-1.5-5.5c-1-1.3-2.5-2-4.4-2c-1.9,0-3.4,0.7-4.4,2c-1,1.3-1.5,3.2-1.5,5.5
	c0,2.3,0.5,4.2,1.5,5.5c1,1.4,2.5,2,4.4,2c1.9,0,3.4-0.7,4.4-2C131.9,30.3,132.4,28.5,132.4,26.1 M143.4,26.1c0,3-0.6,5.6-1.9,7.9
	c-1.3,2.3-3.2,4.1-5.8,5.5c-2.6,1.3-5.7,2-9.3,2c-3.7,0-6.8-0.7-9.3-2c-2.6-1.3-4.5-3.2-5.7-5.5c-1.3-2.3-1.9-5-1.9-7.9
	c0-2.2,0.4-4.3,1.1-6.1c0.7-1.8,1.8-3.4,3.2-4.9c1.4-1.4,3.2-2.5,5.4-3.3c2.1-0.8,4.6-1.1,7.4-1.1c2.8,0,5.3,0.4,7.4,1.2
	c2.1,0.8,3.9,1.8,5.3,3.2c1.4,1.4,2.5,3,3.2,4.8C143.1,21.8,143.4,23.9,143.4,26.1"/>
<path class="st0" d="M170.5,26.2c0-1.8-0.3-3.2-0.8-4.4c-0.6-1.1-1.3-1.9-2.2-2.4c-0.9-0.5-1.8-0.7-2.8-0.7c-1.2,0-2.3,0.2-3.1,0.6
	c-0.8,0.4-1.5,0.9-2.2,1.5v11.3c0.4,0.2,0.8,0.4,1.2,0.7c0.4,0.2,0.8,0.5,1.3,0.6c0.4,0.2,0.9,0.3,1.3,0.4c0.5,0.1,1,0.2,1.5,0.2
	c1.7,0,3-0.7,4.1-2.1C169.9,30.5,170.5,28.6,170.5,26.2 M181.5,25.9c0,2-0.3,3.9-0.8,5.7s-1.4,3.5-2.6,5c-1.2,1.5-2.6,2.7-4.5,3.5
	c-1.8,0.9-3.9,1.3-6.3,1.3c-1.9,0-3.5-0.2-4.6-0.6c-1.1-0.4-2.2-1-3.3-1.6v15.2h-10.5V11.3h10.5V14c1.1-0.9,2.2-1.7,3.5-2.3
	c1.3-0.6,3-0.9,5.2-0.9c2.2,0,4.3,0.5,6.4,1.6c2.1,1.1,3.8,2.7,5.1,5C180.8,19.6,181.5,22.5,181.5,25.9"/>
<path class="st0" d="M44.6,32.6c-1,1.4-2.5,2-4.4,2c-1.9,0-3.4-0.7-4.4-2c-1-1.4-1.5-3.2-1.5-5.5c0-2.4,0.5-4.2,1.5-5.5
	c1-1.3,2.5-2,4.4-2c1.9,0,3.4,0.7,4.4,2c1,1.3,1.5,3.2,1.5,5.5C46.1,29.4,45.6,31.2,44.6,32.6 M29.8,33.9c-0.3,0.6-0.7,1.1-1.1,1.7
	c-0.4-0.5-0.8-1.1-1.1-1.7c-1.1-1.9-1.6-4.2-1.6-6.7c0-1.9,0.3-3.6,0.9-5.1c0.4-1.2,1.1-2.2,1.9-3.2c0.8,0.9,1.4,2,1.8,3.1
	c0.6,1.6,0.9,3.3,0.9,5.2C31.4,29.7,30.9,31.9,29.8,33.9 M21.5,32.5c-1,1.4-2.5,2-4.4,2c-1.9,0-3.4-0.7-4.4-2
	c-1-1.4-1.5-3.2-1.5-5.5c0-2.4,0.5-4.2,1.5-5.5c1-1.3,2.5-2,4.4-2c1.9,0,3.4,0.7,4.4,2c1,1.3,1.5,3.2,1.5,5.5
	C23,29.3,22.5,31.2,21.5,32.5 M56.1,20.9c-0.7-1.8-1.8-3.5-3.2-4.8c-1.4-1.4-3.2-2.5-5.3-3.2c-1.6-0.6-3.4-0.9-5.3-1.1
	c1.8-1.6,4.7-2.6,7.6-3.2C41.1,6.3,33.1,8.3,28.6,15C24.2,8.3,16.2,6.3,7.5,8.5c2.9,0.6,5.7,1.6,7.5,3.1c-2,0.1-3.8,0.5-5.4,1.1
	c-2.1,0.8-3.9,1.8-5.4,3.3c-1.4,1.4-2.5,3-3.2,4.9C0.4,22.7,0,24.7,0,27c0,3,0.6,5.6,1.9,7.9c1.3,2.3,3.2,4.1,5.7,5.5
	c2.6,1.3,5.7,2,9.3,2c3.7,0,6.8-0.7,9.3-2c0.8-0.4,1.5-0.9,2.2-1.4c0.7,0.5,1.4,1,2.3,1.4c2.6,1.3,5.7,2,9.3,2c3.7,0,6.8-0.7,9.3-2
	c2.6-1.3,4.5-3.2,5.8-5.5c1.3-2.3,1.9-5,1.9-7.9C57.2,24.8,56.8,22.7,56.1,20.9"/>
</svg>
