<!-- Generator: Adobe Illustrator 22.1.0, SVG Export Plug-In  -->
<svg version="1.1"
	 xmlns="http://www.w3.org/2000/svg" xmlns:xlink="http://www.w3.org/1999/xlink" xmlns:a="http://ns.adobe.com/AdobeSVGViewerExtensions/3.0/"
	 x="0px" y="0px" width="369.7px" height="111px" viewBox="0 0 369.7 111" style="enable-background:new 0 0 369.7 111;"
	 xml:space="preserve">
<style type="text/css">
	.st0{fill:#1DACFC;}
	.st1{fill:#9C9C9C;}
</style>
<defs>
</defs>
<path class="st0" d="M163.9,16.5c-3.2-0.8-5.9-1.1-7.9-1.1c-2.3,0-4.1,0.8-5.4,2.3c-1.3,1.5-1.9,3.6-1.9,6.4v2.1h10.8v14.5h-10.8
	v42.8h-21.4V40.6h-9.9V26.1h9.9v-1.1c0-4.2,0.8-8.2,2.5-12c1.6-3.8,4.4-6.9,8.2-9.4c3.8-2.5,8.9-3.7,15.2-3.7
	c3.6,0,7.1,0.4,10.8,1.1V16.5z"/>
<path class="st1" d="M216,80c-2.2,1.1-5.3,2.1-9.2,3.1c-3.9,1-7.6,1.5-11.2,1.5c-15.4,0-23.1-7.5-23.1-22.6V37.8h-9.7v-3.7
	l28.7-29.2h2.4V23h20.4v14.9h-20.4v19.4c0,2.3,0.1,4.1,0.4,5.5c0.3,1.4,1.1,2.5,2.3,3.5c1.3,0.9,3.2,1.4,5.9,1.4
	c3.4,0,7.9-1.4,13.4-4.3V80z"/>
<path class="st1" d="M269.6,53.2c0-4.8-1-8.5-3.1-11.3c-2.1-2.7-5.1-4.1-9.1-4.1c-3.9,0-6.9,1.4-9,4.1c-2.1,2.7-3.1,6.5-3.1,11.3
	c0,4.8,1,8.5,3.1,11.3c2.1,2.8,5.1,4.2,9,4.2c4,0,7-1.4,9.1-4.1C268.6,61.7,269.6,58,269.6,53.2 M292.1,53.2c0,6-1.3,11.4-3.9,16.1
	c-2.6,4.7-6.5,8.4-11.7,11.2c-5.2,2.7-11.6,4.1-19,4.1s-13.8-1.4-19-4.1c-5.2-2.7-9.1-6.5-11.7-11.2c-2.6-4.7-3.9-10.1-3.9-16.1
	c0-4.6,0.7-8.7,2.2-12.4c1.4-3.7,3.6-7,6.6-9.9c3-2.9,6.6-5.1,10.9-6.6c4.3-1.5,9.3-2.3,15-2.3c5.7,0,10.7,0.8,15.1,2.3
	c4.4,1.6,8,3.8,10.9,6.6c2.9,2.8,5,6.1,6.5,9.9C291.4,44.5,292.1,48.6,292.1,53.2"/>
<path class="st1" d="M347.1,53.3c0-3.6-0.6-6.6-1.7-8.9c-1.1-2.3-2.6-3.9-4.5-4.9c-1.8-1-3.7-1.5-5.6-1.5c-2.5,0-4.6,0.4-6.2,1.2
	c-1.6,0.8-3.1,1.8-4.6,3.1v23.1c0.8,0.4,1.6,0.8,2.4,1.3c0.9,0.5,1.7,0.9,2.6,1.3c0.9,0.4,1.8,0.7,2.7,0.9c1,0.2,2,0.4,3.1,0.4
	c3.4,0,6.2-1.4,8.4-4.3C346,62.1,347.1,58.2,347.1,53.3 M369.7,52.8c0,4-0.6,7.9-1.7,11.7s-2.9,7.2-5.3,10.2c-2.4,3-5.4,5.4-9.1,7.2
	c-3.7,1.8-8,2.6-12.9,2.6c-4,0-7.1-0.4-9.4-1.2c-2.3-0.8-4.5-1.9-6.8-3.3v31h-21.4V23h21.4v5.5c2.1-1.9,4.5-3.4,7.1-4.7
	c2.6-1.2,6.1-1.9,10.5-1.9c4.4,0,8.7,1.1,13,3.3c4.2,2.2,7.7,5.6,10.5,10.2C368.3,40,369.7,45.8,369.7,52.8"/>
<path class="st0" d="M90.8,66.3c-2.1,2.8-5.1,4.1-9.1,4.1c-3.9,0-6.9-1.4-9-4.2c-2.1-2.8-3.1-6.5-3.1-11.3c0-4.8,1-8.5,3.1-11.3
	c2.1-2.7,5.1-4.1,9-4.1c4,0,7,1.4,9.1,4.1c2.1,2.7,3.1,6.5,3.1,11.3S92.9,63.6,90.8,66.3 M60.7,69c-0.7,1.2-1.5,2.3-2.3,3.4
	c-0.9-1.1-1.6-2.2-2.3-3.4c-2.2-4-3.3-8.5-3.3-13.6c0-3.8,0.6-7.3,1.8-10.5c0.9-2.4,2.2-4.5,3.8-6.5c1.6,1.9,2.8,4,3.7,6.4
	c1.2,3.2,1.9,6.7,1.9,10.5C64,60.5,62.9,65,60.7,69 M43.7,66.2c-2.1,2.8-5.1,4.1-9.1,4.1c-3.9,0-6.9-1.4-9-4.2
	c-2.1-2.8-3.1-6.5-3.1-11.3c0-4.8,1-8.5,3.1-11.3c2.1-2.7,5.1-4.1,9-4.1c4,0,7,1.4,9.1,4.1c2.1,2.7,3.1,6.5,3.1,11.3
	C46.8,59.7,45.8,63.5,43.7,66.2 M114.3,42.5c-1.5-3.8-3.6-7-6.5-9.9c-2.9-2.8-6.5-5-10.9-6.6c-3.3-1.2-6.9-1.9-10.9-2.2
	c3.7-3.2,9.5-5.3,15.5-6.5c-17.7-4.5-34.1-0.5-43.1,13.2c-9-13.7-25.4-17.7-43.1-13.2c5.9,1.2,11.7,3.2,15.4,6.4
	c-4,0.3-7.6,1-10.9,2.2c-4.3,1.5-8,3.8-10.9,6.6c-3,2.9-5.1,6.2-6.6,9.9C0.7,46.2,0,50.4,0,54.9c0,6,1.3,11.4,3.9,16.1
	c2.6,4.7,6.5,8.4,11.7,11.2c5.2,2.7,11.6,4.1,19,4.1c7.5,0,13.8-1.4,19-4.1c1.6-0.8,3.1-1.8,4.5-2.8c1.4,1.1,2.9,2.1,4.6,2.9
	c5.2,2.7,11.6,4.1,19,4.1c7.5,0,13.8-1.4,19-4.1c5.2-2.7,9.1-6.5,11.7-11.2c2.6-4.7,3.9-10.1,3.9-16.1
	C116.5,50.5,115.7,46.3,114.3,42.5"/>
<path class="st0" d="M13.8,104.4c0.8,0,1.5-0.2,2-0.7s0.8-1.1,0.8-2c0-0.8-0.3-1.5-0.8-2c-0.5-0.5-1.2-0.7-2-0.7h-1.5v5.4H13.8z
	 M14,97.8c0.8,0,1.5,0.2,2.1,0.5c0.6,0.3,1.1,0.8,1.5,1.4c0.3,0.6,0.5,1.3,0.5,2c0,0.8-0.2,1.4-0.5,2s-0.8,1-1.5,1.4
	c-0.6,0.3-1.4,0.5-2.2,0.5h-3.2v-7.7H14z"/>
<path class="st0" d="M24.6,102.5h2.5l-1.3-3.1L24.6,102.5z M26.6,97.8l3.4,7.7h-1.6l-0.8-1.9h-3.4l-0.7,1.9h-1.6l3.2-7.7H26.6z"/>
<polygon class="st0" points="39.8,97.8 39.8,99 37.1,99 37.1,105.5 35.6,105.5 35.6,99 32.8,99 32.8,97.8 "/>
<path class="st0" d="M45.4,102.5h2.5l-1.3-3.1L45.4,102.5z M47.4,97.8l3.4,7.7h-1.6l-0.8-1.9H45l-0.7,1.9h-1.6l3.2-7.7H47.4z"/>
<rect x="61.7" y="97.8" class="st0" width="1.5" height="7.7"/>
<polygon class="st0" points="69.7,97.8 72.2,100.8 74.8,97.8 76.1,97.8 76.1,105.5 74.6,105.5 74.6,100.1 74.5,100.1 72.3,102.8 
	72.1,102.8 69.9,100.1 69.8,100.1 69.8,105.5 68.3,105.5 68.3,97.8 "/>
<polygon class="st0" points="82.5,97.8 85.1,100.8 87.6,97.8 89,97.8 89,105.5 87.5,105.5 87.5,100.1 87.4,100.1 85.2,102.8 
	85,102.8 82.7,100.1 82.7,100.1 82.7,105.5 81.2,105.5 81.2,97.8 "/>
<path class="st0" d="M95.3,101.7c0,0.5,0.1,1,0.3,1.4c0.2,0.4,0.6,0.7,1,1c0.4,0.2,0.9,0.3,1.4,0.3c0.8,0,1.4-0.2,2-0.7
	c0.5-0.5,0.8-1.1,0.8-1.9c0-0.5-0.1-1-0.3-1.4c-0.2-0.4-0.6-0.7-1-1C99,99.1,98.5,99,98,99c-0.5,0-1,0.1-1.4,0.3
	c-0.4,0.2-0.7,0.5-1,1C95.4,100.7,95.3,101.1,95.3,101.7 M98,97.7c0.8,0,1.5,0.2,2.2,0.5c0.6,0.3,1.2,0.8,1.5,1.4
	c0.4,0.6,0.6,1.3,0.6,2c0,0.7-0.2,1.4-0.6,2c-0.4,0.6-0.9,1.1-1.5,1.4c-0.6,0.3-1.4,0.5-2.2,0.5c-0.8,0-1.5-0.2-2.2-0.5
	c-0.7-0.3-1.2-0.8-1.5-1.4c-0.4-0.6-0.5-1.3-0.5-2c0-0.7,0.2-1.4,0.5-2c0.4-0.6,0.9-1.1,1.5-1.5C96.5,97.9,97.2,97.7,98,97.7"/>
<path class="st0" d="M109.9,104.4c0.5,0,0.9-0.1,1.1-0.3c0.3-0.2,0.4-0.5,0.4-0.8c0-0.3-0.1-0.6-0.4-0.8c-0.3-0.2-0.6-0.3-1-0.3
	h-1.4v2.2H109.9z M109.5,101c0.4,0,0.7-0.1,0.9-0.3c0.2-0.2,0.3-0.5,0.3-0.8c0-0.3-0.1-0.5-0.3-0.7c-0.2-0.2-0.5-0.3-0.8-0.3h-1.1v2
	H109.5z M109.9,97.8c0.7,0,1.3,0.2,1.7,0.6c0.4,0.4,0.7,0.8,0.7,1.4c0,0.4-0.1,0.7-0.3,0.9c-0.2,0.3-0.5,0.5-0.8,0.6v0.1
	c0.5,0.1,1,0.4,1.3,0.7c0.3,0.4,0.5,0.8,0.5,1.3c0,0.4-0.1,0.8-0.3,1.1c-0.2,0.3-0.5,0.6-0.9,0.8c-0.4,0.2-0.8,0.3-1.4,0.3h-3.2
	v-7.7H109.9z"/>
<rect x="117.6" y="97.8" class="st0" width="1.5" height="7.7"/>
<polygon class="st0" points="125.8,97.8 125.8,104.4 129.5,104.4 129.5,105.5 124.3,105.5 124.3,97.8 "/>
<rect x="134" y="97.8" class="st0" width="1.5" height="7.7"/>
<polygon class="st0" points="145.6,97.8 145.6,99 142.1,99 142.1,101 145.5,101 145.5,102.2 142.1,102.2 142.1,104.4 145.7,104.4 
	145.7,105.5 140.6,105.5 140.6,97.8 "/>
<path class="st0" d="M152.9,101.1c0.4,0,0.7-0.1,0.9-0.3c0.2-0.2,0.3-0.5,0.3-0.8c0-0.4-0.1-0.6-0.3-0.8c-0.2-0.2-0.5-0.3-0.9-0.3
	H152v2.2H152.9z M153.3,97.8c0.7,0,1.3,0.2,1.8,0.6c0.5,0.4,0.7,0.9,0.7,1.6c0,0.4-0.1,0.8-0.3,1.1c-0.2,0.3-0.6,0.6-1,0.8
	c0.2,0.1,0.5,0.3,0.7,0.5c0.2,0.2,0.4,0.6,0.7,1.2c0.5,0.9,0.8,1.6,1.1,1.9h-1.7c-0.1-0.2-0.3-0.4-0.5-0.8c-0.4-0.8-0.7-1.4-0.9-1.7
	c-0.2-0.3-0.4-0.5-0.6-0.6c-0.2-0.1-0.4-0.2-0.6-0.2H152v3.3h-1.5v-7.7H153.3z"/>
<rect x="167.8" y="97.8" class="st0" width="1.5" height="7.7"/>
<polygon class="st0" points="175.7,97.8 180.3,103.2 180.3,97.8 181.8,97.8 181.8,105.5 180.5,105.5 175.9,100 175.9,105.5 
	174.4,105.5 174.4,97.8 "/>
<polygon class="st0" points="193.3,97.8 193.3,99 190.6,99 190.6,105.5 189.1,105.5 189.1,99 186.3,99 186.3,97.8 "/>
<polygon class="st0" points="202.8,97.8 202.8,99 199.3,99 199.3,101 202.7,101 202.7,102.2 199.3,102.2 199.3,104.4 202.9,104.4 
	202.9,105.5 197.8,105.5 197.8,97.8 "/>
<polygon class="st0" points="209.2,97.8 209.2,104.4 213,104.4 213,105.5 207.7,105.5 207.7,97.8 "/>
<polygon class="st0" points="218.9,97.8 218.9,104.4 222.6,104.4 222.6,105.5 217.4,105.5 217.4,97.8 "/>
<rect x="227.1" y="97.8" class="st0" width="1.5" height="7.7"/>
<path class="st0" d="M237.8,97.7c1,0,1.9,0.2,2.8,0.6v1.4c-0.9-0.5-1.9-0.7-2.8-0.7c-0.6,0-1.1,0.1-1.5,0.3c-0.4,0.2-0.8,0.5-1,1
	c-0.2,0.4-0.4,0.9-0.4,1.4c0,0.8,0.3,1.4,0.8,1.9c0.5,0.5,1.2,0.7,2.1,0.7c0.2,0,0.5,0,0.7-0.1c0.2,0,0.5-0.1,0.8-0.2v-1.3H238v-1.2
	h2.8v3.2c-0.4,0.3-0.8,0.5-1.4,0.6s-1.1,0.2-1.7,0.2c-0.8,0-1.6-0.2-2.2-0.5c-0.7-0.3-1.2-0.8-1.6-1.4c-0.4-0.6-0.6-1.3-0.6-2
	c0-0.8,0.2-1.4,0.6-2.1c0.4-0.6,0.9-1.1,1.6-1.4C236.2,97.9,237,97.7,237.8,97.7"/>
<polygon class="st0" points="250.8,97.8 250.8,99 247.3,99 247.3,101 250.6,101 250.6,102.2 247.3,102.2 247.3,104.4 250.9,104.4 
	250.9,105.5 245.8,105.5 245.8,97.8 "/>
<polygon class="st0" points="257,97.8 261.6,103.2 261.6,97.8 263,97.8 263,105.5 261.7,105.5 257.1,100 257.1,105.5 255.7,105.5 
	255.7,97.8 "/>
<path class="st0" d="M272.2,97.7c0.4,0,0.9,0.1,1.3,0.1c0.4,0.1,0.9,0.3,1.4,0.5v1.4c-0.5-0.3-0.9-0.5-1.3-0.6
	c-0.4-0.1-0.8-0.2-1.3-0.2c-0.5,0-1,0.1-1.5,0.3c-0.4,0.2-0.8,0.5-1,1c-0.2,0.4-0.4,0.9-0.4,1.4c0,0.5,0.1,1,0.4,1.4
	c0.2,0.4,0.6,0.7,1,1c0.4,0.2,0.9,0.3,1.5,0.3c0.4,0,0.8-0.1,1.2-0.2c0.4-0.1,0.9-0.3,1.5-0.7v1.4c-0.5,0.3-1,0.4-1.4,0.6
	c-0.4,0.1-0.9,0.2-1.5,0.2c-0.8,0-1.5-0.2-2.2-0.5c-0.6-0.3-1.1-0.8-1.5-1.4c-0.4-0.6-0.6-1.3-0.6-2c0-0.8,0.2-1.5,0.6-2.1
	c0.4-0.6,0.9-1.1,1.6-1.4C270.6,97.9,271.3,97.7,272.2,97.7"/>
<polygon class="st0" points="284.7,97.8 284.7,99 281.2,99 281.2,101 284.6,101 284.6,102.2 281.2,102.2 281.2,104.4 284.8,104.4 
	284.8,105.5 279.7,105.5 279.7,97.8 "/>
</svg>
