<!-- Generator: Adobe Illustrator 22.1.0, SVG Export Plug-In  -->
<svg version="1.1"
	 xmlns="http://www.w3.org/2000/svg" xmlns:xlink="http://www.w3.org/1999/xlink" xmlns:a="http://ns.adobe.com/AdobeSVGViewerExtensions/3.0/"
	 x="0px" y="0px" width="116.5px" height="70.7px" viewBox="0 0 116.5 70.7" style="enable-background:new 0 0 116.5 70.7;"
	 xml:space="preserve">
<style type="text/css">
	.st0{fill:#FFFFFF;}
</style>
<defs>
</defs>
<path class="st0" d="M90.8,50.7c-2.1,2.8-5.1,4.1-9.1,4.1c-3.9,0-6.9-1.4-9-4.2c-2.1-2.8-3.1-6.5-3.1-11.3c0-4.8,1-8.5,3.1-11.3
	c2.1-2.7,5.1-4.1,9-4.1c4,0,7,1.4,9.1,4.1c2.1,2.7,3.1,6.5,3.1,11.3S92.9,47.9,90.8,50.7 M60.7,53.4c-0.7,1.2-1.5,2.3-2.3,3.4
	c-0.9-1.1-1.6-2.2-2.3-3.4c-2.2-4-3.3-8.5-3.3-13.6c0-3.8,0.6-7.3,1.8-10.5c0.9-2.4,2.2-4.5,3.8-6.5c1.6,1.9,2.8,4,3.7,6.4
	C63.4,32.5,64,36,64,39.8C64,44.9,62.9,49.4,60.7,53.4 M43.7,50.6c-2.1,2.8-5.1,4.1-9.1,4.1c-3.9,0-6.9-1.4-9-4.2
	c-2.1-2.8-3.1-6.5-3.1-11.3c0-4.8,1-8.5,3.1-11.3c2.1-2.7,5.1-4.1,9-4.1c4,0,7,1.4,9.1,4.1c2.1,2.7,3.1,6.5,3.1,11.3
	C46.8,44.1,45.8,47.8,43.7,50.6 M114.3,26.9c-1.5-3.8-3.6-7-6.5-9.9c-2.9-2.8-6.5-5-10.9-6.6C93.6,9.3,90,8.6,86,8.3
	c3.7-3.2,9.5-5.3,15.5-6.5C83.8-2.7,67.4,1.2,58.3,15C49.3,1.2,32.9-2.7,15.2,1.8C21.1,2.9,26.9,5,30.6,8.2c-4,0.3-7.6,1-10.9,2.2
	c-4.3,1.5-8,3.8-10.9,6.6c-3,2.9-5.1,6.2-6.6,9.9C0.7,30.6,0,34.7,0,39.3c0,6,1.3,11.4,3.9,16.1c2.6,4.7,6.5,8.4,11.7,11.2
	c5.2,2.7,11.6,4.1,19,4.1c7.5,0,13.8-1.4,19-4.1c1.6-0.8,3.1-1.8,4.5-2.8c1.4,1.1,2.9,2.1,4.6,2.9c5.2,2.7,11.6,4.1,19,4.1
	c7.5,0,13.8-1.4,19-4.1c5.2-2.7,9.1-6.5,11.7-11.2c2.6-4.7,3.9-10.1,3.9-16.1C116.5,34.8,115.7,30.7,114.3,26.9"/>
</svg>
