<!-- Generator: Adobe Illustrator 22.1.0, SVG Export Plug-In  -->
<svg version="1.1"
	 xmlns="http://www.w3.org/2000/svg" xmlns:xlink="http://www.w3.org/1999/xlink" xmlns:a="http://ns.adobe.com/AdobeSVGViewerExtensions/3.0/"
	 x="0px" y="0px" width="25px" height="25px" viewBox="0 0 25 25" style="enable-background:new 0 0 25 25;" xml:space="preserve">
<style type="text/css">
	.st0{fill:#FFFFFF;}
</style>
<defs>
</defs>
<path class="st0" d="M24.7,10.3l-3.4-3.2V1c0-0.6-0.4-1-1-1h-4c-0.6,0-1,0.4-1,1v0.9l-2-1.7c-0.4-0.3-0.9-0.3-1.3,0l-11.6,10
	C0,10.5-0.1,11,0.1,11.3C0.2,11.7,0.6,12,1,12h1.3v12c0,0.6,0.4,1,1,1h7c0.6,0,1-0.4,1-1v-6h3v6c0,0.6,0.4,1,1,1h7c0.6,0,1-0.4,1-1
	V12H24c0.4,0,0.8-0.2,0.9-0.6C25.1,11,25,10.6,24.7,10.3z M21.3,11v12h-5v-6c0-0.6-0.4-1-1-1h-5c-0.6,0-1,0.4-1,1v6h-5V11
	c0-0.4-0.3-0.8-0.7-0.9l9-7.7l3,2.5c0.3,0.2,0.7,0.3,1.1,0.1s0.6-0.5,0.6-0.9V2h2v5.5c0,0.3,0.1,0.5,0.3,0.7l2.1,2
	C21.5,10.4,21.3,10.7,21.3,11z"/>
</svg>
