<!-- Generator: Adobe Illustrator 22.1.0, SVG Export Plug-In  -->
<svg version="1.1"
	 xmlns="http://www.w3.org/2000/svg" xmlns:xlink="http://www.w3.org/1999/xlink" xmlns:a="http://ns.adobe.com/AdobeSVGViewerExtensions/3.0/"
	 x="0px" y="0px" width="24px" height="24px" viewBox="0 0 24 24" style="enable-background:new 0 0 24 24;" xml:space="preserve">
<style type="text/css">
	.st0{fill:#FFFFFF;}
</style>
<defs>
</defs>
<path class="st0" d="M23,15.4h-0.5v-13c0-0.6-0.4-1-1-1H13l-0.4-0.8c0,0-0.1-0.1-0.1-0.1c0-0.1-0.1-0.1-0.1-0.2
	c-0.1-0.1-0.1-0.1-0.2-0.1c0,0-0.1-0.1-0.1-0.1c0,0,0,0,0,0C12,0,12,0,11.9,0c-0.1,0-0.1,0-0.1,0c-0.1,0-0.1,0-0.2,0
	c-0.1,0-0.1,0-0.2,0c0,0,0,0,0,0c0,0-0.1,0.1-0.1,0.1c-0.1,0-0.1,0.1-0.2,0.1c-0.1,0.1-0.1,0.1-0.1,0.2c0,0-0.1,0.1-0.1,0.1
	l-0.4,0.8H2.5c-0.6,0-1,0.4-1,1v13H1c-0.6,0-1,0.4-1,1s0.4,1,1,1h1.5h0.7l-2.3,5.2c-0.2,0.5,0,1.1,0.5,1.3C1.5,24,1.7,24,1.8,24
	c0.4,0,0.7-0.2,0.9-0.6l2.7-6H18l2.7,6c0.2,0.4,0.5,0.6,0.9,0.6c0.1,0,0.3,0,0.4-0.1c0.5-0.2,0.7-0.8,0.5-1.3l-2.3-5.2h1.3H23
	c0.6,0,1-0.4,1-1S23.6,15.4,23,15.4z M18.7,15.4C18.7,15.4,18.6,15.4,18.7,15.4H3.5v-12h7.6c0,0,0,0,0,0c0,0,0,0,0,0h9.4v12H18.7z"
	/>
</svg>
