<!-- Generator: Adobe Illustrator 22.1.0, SVG Export Plug-In  -->
<svg version="1.1"
	 xmlns="http://www.w3.org/2000/svg" xmlns:xlink="http://www.w3.org/1999/xlink" xmlns:a="http://ns.adobe.com/AdobeSVGViewerExtensions/3.0/"
	 x="0px" y="0px" width="24px" height="24px" viewBox="0 0 24 24" style="enable-background:new 0 0 24 24;" xml:space="preserve">
<style type="text/css">
	.st0{fill:#FFFFFF;}
</style>
<defs>
</defs>
<g>
	<g>
		<path class="st0" d="M12.1,10.7C12.1,10.7,12.1,10.7,12.1,10.7c-0.4,0-0.6-0.2-0.8-0.4L5.9,3C5.7,2.8,5.6,2.5,5.7,2.2
			c0.1-0.3,0.2-0.5,0.5-0.7C8,0.5,10,0,12,0c2.5,0,4.9,0.8,6.9,2.2c0.2,0.2,0.4,0.4,0.4,0.7s-0.1,0.6-0.3,0.8l-6.2,6.6
			C12.7,10.6,12.4,10.7,12.1,10.7z M8.2,2.8l4,5.4l4.6-4.9C14.2,1.8,11,1.6,8.2,2.8z"/>
	</g>
	<g>
		<g>
			<path class="st0" d="M18.2,22.1c-0.1,0-0.2,0-0.2,0c-0.3-0.1-0.5-0.3-0.6-0.5l-4.4-8.8c-0.2-0.4-0.1-0.8,0.2-1.1l6.7-7.2
				c0.2-0.2,0.5-0.3,0.8-0.3c0.3,0,0.6,0.1,0.7,0.4C23,6.6,24,9.3,24,12c0,4-2,7.7-5.2,9.9C18.6,22,18.4,22.1,18.2,22.1z M15,12.4
				l3.5,7.1c2.2-1.9,3.4-4.6,3.4-7.5c0-1.9-0.5-3.8-1.6-5.4L15,12.4z"/>
		</g>
		<g>
			<path class="st0" d="M12,24C5.4,24,0,18.6,0,12c0-3.2,1.3-6.3,3.6-8.5C3.8,3.3,4,3.2,4.3,3.2c0.3,0,0.6,0.2,0.7,0.4l6.5,8.6
				c0,0,0.1,0.1,0.1,0.2l4.8,9.6c0.1,0.3,0.1,0.6,0,0.8s-0.3,0.5-0.6,0.6C14.6,23.8,13.3,24,12,24z M4.2,5.8C2.8,7.5,2,9.7,2,12
				c0,5.5,4.5,10,10,10c0.7,0,1.4-0.1,2.1-0.2l-4.2-8.5L4.2,5.8z"/>
		</g>
	</g>
</g>
</svg>
