<!-- Generator: Adobe Illustrator 22.1.0, SVG Export Plug-In  -->
<svg version="1.1"
	 xmlns="http://www.w3.org/2000/svg" xmlns:xlink="http://www.w3.org/1999/xlink" xmlns:a="http://ns.adobe.com/AdobeSVGViewerExtensions/3.0/"
	 x="0px" y="0px" width="64px" height="68px" viewBox="0 0 64 68" style="enable-background:new 0 0 64 68;" xml:space="preserve">
<style type="text/css">
	.st0{fill:#FFFFFF;}
</style>
<defs>
</defs>
<g>
	<g>
		<g>
			<path d="M4.6,26.5c-1.1,0-2-0.7-2.4-1.7s0-2.2,0.9-2.8L30.7,2c0.4-0.3,0.9-0.5,1.5-0.5s1,0.2,1.5,0.5l27.6,20
				c0.9,0.6,1.2,1.8,0.9,2.8s-1.3,1.7-2.4,1.7H4.6z M52,21.5L32.2,7.1L12.3,21.5H52z"/>
			<path class="st0" d="M32.2,3c0.2,0,0.4,0.1,0.6,0.2l27.6,20c0.4,0.3,0.5,0.7,0.4,1.1s-0.5,0.7-1,0.7H4.6c-0.4,0-0.8-0.3-1-0.7
				s0-0.9,0.4-1.1l27.6-20C31.8,3.1,32,3,32.2,3 M7.7,23h48.9L32.2,5.2L7.7,23 M32.2,0c-0.9,0-1.7,0.3-2.4,0.8l-27.6,20
				c-1.4,1-2,2.8-1.5,4.5C1.4,26.9,2.9,28,4.6,28h55.1c1.7,0,3.3-1.1,3.8-2.8c0.5-1.7,0-3.5-1.5-4.5l-27.6-20C33.8,0.3,33,0,32.2,0
				L32.2,0z M16.9,20L32.2,8.9L47.4,20H16.9L16.9,20z"/>
		</g>
	</g>
	<g>
		<g>
			<path d="M4,66.5c-1.4,0-2.5-1.1-2.5-2.5v-6c0-1.4,1.1-2.5,2.5-2.5h56c1.4,0,2.5,1.1,2.5,2.5v6c0,1.4-1.1,2.5-2.5,2.5H4z
				 M57.5,61.5v-1h-51v1H57.5z"/>
			<path class="st0" d="M60,57c0.6,0,1,0.4,1,1v6c0,0.6-0.4,1-1,1H4c-0.6,0-1-0.4-1-1v-6c0-0.6,0.4-1,1-1H60 M5,63h54v-4H5V63
				 M60,54H4c-2.2,0-4,1.8-4,4v6c0,2.2,1.8,4,4,4h56c2.2,0,4-1.8,4-4v-6C64,55.8,62.2,54,60,54L60,54z"/>
		</g>
	</g>
	<g>
		<g>
			<path d="M6,55.5c-1.4,0-2.5-1.1-2.5-2.5V31c0-1.4,1.1-2.5,2.5-2.5h8c1.4,0,2.5,1.1,2.5,2.5v22c0,1.4-1.1,2.5-2.5,2.5H6z
				 M11.5,50.5v-17h-3v17H11.5z"/>
			<path class="st0" d="M14,30c0.6,0,1,0.4,1,1v22c0,0.6-0.4,1-1,1H6c-0.6,0-1-0.4-1-1V31c0-0.6,0.4-1,1-1H14 M7,52h6V32H7V52
				 M14,27H6c-2.2,0-4,1.8-4,4v22c0,2.2,1.8,4,4,4h8c2.2,0,4-1.8,4-4V31C18,28.8,16.2,27,14,27L14,27z"/>
		</g>
	</g>
	<g>
		<g>
			<path d="M50,55.5c-1.4,0-2.5-1.1-2.5-2.5V31c0-1.4,1.1-2.5,2.5-2.5h8c1.4,0,2.5,1.1,2.5,2.5v22c0,1.4-1.1,2.5-2.5,2.5H50z
				 M55.5,50.5v-17h-3v17H55.5z"/>
			<path class="st0" d="M58,30c0.6,0,1,0.4,1,1v22c0,0.6-0.4,1-1,1h-8c-0.6,0-1-0.4-1-1V31c0-0.6,0.4-1,1-1H58 M51,52h6V32h-6V52
				 M58,27h-8c-2.2,0-4,1.8-4,4v22c0,2.2,1.8,4,4,4h8c2.2,0,4-1.8,4-4V31C62,28.8,60.2,27,58,27L58,27z"/>
		</g>
	</g>
	<g>
		<g>
			<path d="M32.1,55.5c-0.6,0-1.2-0.2-1.7-0.7c-1.6-0.7-3.8-1.1-5.8-1.1c-1.9,0-2.7,0.4-2.8,0.5c-0.5,0.5-1.1,0.7-1.8,0.7
				c-0.3,0-0.7-0.1-1-0.2c-0.9-0.4-1.5-1.3-1.5-2.3V31.2c0-0.7,0.3-1.3,0.7-1.8c1.9-1.9,5.5-2.2,7.5-2.2c0.2,0,0.5,0,0.7,0
				c1.3,0,3.7,0.3,5.6,1.2c1.9-0.9,4.2-1.2,5.6-1.2c0.2,0,0.4,0,0.7,0c2,0,5.6,0.3,7.5,2.2c0.5,0.5,0.7,1.1,0.7,1.8v21.2
				c0,1-0.6,1.9-1.5,2.3c-0.3,0.1-0.6,0.2-1,0.2c-0.7,0-1.3-0.3-1.8-0.7c-0.1-0.1-0.9-0.5-2.7-0.5c-1.9,0-4,0.4-5.6,1.1
				c-0.5,0.4-1.1,0.7-1.7,0.7H32.1z M24.7,48.7c2.6,0,5.3,0.5,7.5,1.5c2.2-0.9,4.9-1.5,7.3-1.5c0.7,0,1.4,0,2,0.1V32.7
				c-0.7-0.2-1.7-0.4-3.2-0.4c-0.2,0-0.4,0-0.5,0c-1.5,0.1-2.6,0.3-3.2,0.6v10.9c0,1.4-1.1,2.5-2.5,2.5s-2.5-1.1-2.5-2.5V32.8
				c-0.7-0.3-1.8-0.5-3.2-0.6c-0.2,0-0.4,0-0.5,0c-1.5,0-2.5,0.2-3.2,0.4v16.2C23.2,48.8,23.9,48.7,24.7,48.7z"/>
			<path class="st0" d="M25.7,28.8c0.2,0,0.4,0,0.6,0c1.2,0,3.9,0.3,5.6,1.4c1.7-1.2,4.4-1.4,5.6-1.4c0.2,0,0.4,0,0.6,0
				c2.4,0,5.2,0.5,6.5,1.8c0.2,0.2,0.3,0.4,0.3,0.7v21.2c0,0.4-0.2,0.8-0.6,0.9c-0.1,0.1-0.3,0.1-0.4,0.1c-0.3,0-0.5-0.1-0.7-0.3
				c-0.7-0.7-2.1-1-3.7-1c-2.1,0-4.6,0.5-6.5,1.4c-0.2,0.2-0.5,0.4-0.8,0.4h-0.2c-0.3,0-0.6-0.2-0.8-0.4c-1.9-0.9-4.5-1.4-6.7-1.4
				c-1.7,0-3.2,0.3-3.8,1c-0.2,0.2-0.4,0.3-0.7,0.3c-0.1,0-0.3,0-0.4-0.1c-0.4-0.2-0.6-0.5-0.6-0.9V31.2c0-0.3,0.1-0.5,0.3-0.7
				C20.6,29.2,23.4,28.8,25.7,28.8 M21,50.7c1-0.4,2.3-0.5,3.7-0.5c2.6,0,5.4,0.6,7.5,1.6c2.1-1,4.9-1.6,7.3-1.6
				c1.3,0,2.5,0.2,3.5,0.5v-19c-0.8-0.5-2.5-0.9-4.7-0.9c-0.2,0-0.4,0-0.6,0c-2.1,0.1-3.9,0.5-4.7,1.2v11.8c0,0.6-0.4,1-1,1
				s-1-0.4-1-1V31.9c-0.8-0.6-2.6-1.1-4.7-1.2c-0.2,0-0.4,0-0.6,0c-2.2,0-3.9,0.4-4.7,0.9V50.7 M25.7,25.8c-2.2,0-6.3,0.3-8.6,2.6
				c-0.7,0.7-1.2,1.8-1.2,2.8v21.2c0,1.6,1,3.1,2.5,3.7c0.5,0.2,1,0.3,1.5,0.3c1,0,1.9-0.4,2.7-1c0.2-0.1,0.8-0.2,1.9-0.2
				c1.7,0,3.6,0.4,5,0.9c0.7,0.6,1.6,0.9,2.5,0.9h0.2c0.9,0,1.8-0.3,2.5-0.9c1.4-0.6,3.2-0.9,4.8-0.9c1,0,1.5,0.1,1.7,0.2
				c0.7,0.7,1.7,1,2.7,1c0.5,0,1.1-0.1,1.5-0.3c1.5-0.6,2.5-2.1,2.5-3.7V31.2c0-1.1-0.4-2.1-1.2-2.8c-2.3-2.3-6.4-2.6-8.6-2.6
				c-0.2,0-0.5,0-0.7,0c-1.6,0.1-3.7,0.3-5.5,1.1c-1.9-0.8-3.9-1-5.5-1.1C26.2,25.8,26,25.8,25.7,25.8L25.7,25.8z M24,33.9
				c0.5-0.1,1-0.1,1.7-0.1c0.2,0,0.3,0,0.5,0c0.7,0,1.3,0.1,1.8,0.2v9.8c0,2.2,1.8,4,4,4s4-1.8,4-4V34c0.5-0.1,1.1-0.2,1.8-0.2
				c0.2,0,0.3,0,0.5,0c0.7,0,1.3,0,1.7,0.1v13.3c-0.2,0-0.3,0-0.5,0c-2.4,0-5.1,0.5-7.3,1.4c-2.3-0.9-5-1.3-7.5-1.3
				c-0.2,0-0.4,0-0.7,0V33.9L24,33.9z"/>
		</g>
	</g>
</g>
</svg>
