<!-- Generator: Adobe Illustrator 22.1.0, SVG Export Plug-In  -->
<svg version="1.1"
	 xmlns="http://www.w3.org/2000/svg" xmlns:xlink="http://www.w3.org/1999/xlink" xmlns:a="http://ns.adobe.com/AdobeSVGViewerExtensions/3.0/"
	 x="0px" y="0px" width="50px" height="66px" viewBox="0 0 50 66" style="enable-background:new 0 0 50 66;" xml:space="preserve">
<style type="text/css">
	.st0{fill:#FFFFFF;}
</style>
<defs>
</defs>
<rect x="12" y="4.1" class="st0" width="28" height="10"/>
<rect x="4" y="14.1" class="st0" width="42" height="48"/>
<g>
	<g>
		<path d="M4,64.5c-1.4,0-2.5-1.1-2.5-2.5V14c0-1.4,1.1-2.5,2.5-2.5h5.5V4c0-1.4,1.1-2.5,2.5-2.5h28c1.4,0,2.5,1.1,2.5,2.5v7.5H46
			c1.4,0,2.5,1.1,2.5,2.5v48c0,1.4-1.1,2.5-2.5,2.5H4z M43.5,59.5v-43h-37v43h11V54c0-1.4,1.1-2.5,2.5-2.5h10c1.4,0,2.5,1.1,2.5,2.5
			v5.5H43.5z M27.5,59.5v-3h-5v3H27.5z M37.5,11.5v-5h-23v5H37.5z"/>
		<path class="st0" d="M40,3c0.6,0,1,0.4,1,1v9h5c0.6,0,1,0.4,1,1v48c0,0.6-0.4,1-1,1H30H20H4c-0.6,0-1-0.4-1-1V14c0-0.6,0.4-1,1-1
			h7V4c0-0.6,0.4-1,1-1H40 M13,13h26V5H13V13 M5,61h14v-7c0-0.6,0.4-1,1-1h10c0.6,0,1,0.4,1,1v7h14V15h-5H12H5V61 M21,61h8v-6h-8V61
			 M40,0H12C9.8,0,8,1.8,8,4v6H4c-2.2,0-4,1.8-4,4v48c0,2.2,1.8,4,4,4h16h10h16c2.2,0,4-1.8,4-4V14c0-2.2-1.8-4-4-4h-2V4
			C44,1.8,42.2,0,40,0L40,0z M16,8h20v2H16V8L16,8z M8,18h4h28h2v40h-8v-4c0-2.2-1.8-4-4-4H20c-2.2,0-4,1.8-4,4v4H8V18L8,18z"/>
	</g>
	<g>
		<path d="M11,24.5c-1.4,0-2.5-1.1-2.5-2.5s1.1-2.5,2.5-2.5h4c1.4,0,2.5,1.1,2.5,2.5s-1.1,2.5-2.5,2.5H11z"/>
		<path class="st0" d="M15,21c0.6,0,1,0.4,1,1s-0.4,1-1,1h-4c-0.6,0-1-0.4-1-1s0.4-1,1-1H15 M15,18h-4c-2.2,0-4,1.8-4,4s1.8,4,4,4h4
			c2.2,0,4-1.8,4-4S17.2,18,15,18L15,18z"/>
	</g>
	<g>
		<path d="M23,24.5c-1.4,0-2.5-1.1-2.5-2.5s1.1-2.5,2.5-2.5h4c1.4,0,2.5,1.1,2.5,2.5s-1.1,2.5-2.5,2.5H23z"/>
		<path class="st0" d="M27,21c0.6,0,1,0.4,1,1s-0.4,1-1,1h-4c-0.6,0-1-0.4-1-1s0.4-1,1-1H27 M27,18h-4c-2.2,0-4,1.8-4,4s1.8,4,4,4h4
			c2.2,0,4-1.8,4-4S29.2,18,27,18L27,18z"/>
	</g>
	<g>
		<path d="M35,24.5c-1.4,0-2.5-1.1-2.5-2.5s1.1-2.5,2.5-2.5h4c1.4,0,2.5,1.1,2.5,2.5s-1.1,2.5-2.5,2.5H35z"/>
		<path class="st0" d="M39,21c0.6,0,1,0.4,1,1s-0.4,1-1,1h-4c-0.6,0-1-0.4-1-1s0.4-1,1-1H39 M39,18h-4c-2.2,0-4,1.8-4,4s1.8,4,4,4h4
			c2.2,0,4-1.8,4-4S41.2,18,39,18L39,18z"/>
	</g>
	<g>
		<path d="M11,30.5c-1.4,0-2.5-1.1-2.5-2.5s1.1-2.5,2.5-2.5h4c1.4,0,2.5,1.1,2.5,2.5s-1.1,2.5-2.5,2.5H11z"/>
		<path class="st0" d="M15,27c0.6,0,1,0.4,1,1s-0.4,1-1,1h-4c-0.6,0-1-0.4-1-1s0.4-1,1-1H15 M15,24h-4c-2.2,0-4,1.8-4,4s1.8,4,4,4h4
			c2.2,0,4-1.8,4-4S17.2,24,15,24L15,24z"/>
	</g>
	<g>
		<path d="M23,30.5c-1.4,0-2.5-1.1-2.5-2.5s1.1-2.5,2.5-2.5h4c1.4,0,2.5,1.1,2.5,2.5s-1.1,2.5-2.5,2.5H23z"/>
		<path class="st0" d="M27,27c0.6,0,1,0.4,1,1s-0.4,1-1,1h-4c-0.6,0-1-0.4-1-1s0.4-1,1-1H27 M27,24h-4c-2.2,0-4,1.8-4,4s1.8,4,4,4h4
			c2.2,0,4-1.8,4-4S29.2,24,27,24L27,24z"/>
	</g>
	<g>
		<path d="M35,30.5c-1.4,0-2.5-1.1-2.5-2.5s1.1-2.5,2.5-2.5h4c1.4,0,2.5,1.1,2.5,2.5s-1.1,2.5-2.5,2.5H35z"/>
		<path class="st0" d="M39,27c0.6,0,1,0.4,1,1s-0.4,1-1,1h-4c-0.6,0-1-0.4-1-1s0.4-1,1-1H39 M39,24h-4c-2.2,0-4,1.8-4,4s1.8,4,4,4h4
			c2.2,0,4-1.8,4-4S41.2,24,39,24L39,24z"/>
	</g>
	<g>
		<path d="M11,36.5c-1.4,0-2.5-1.1-2.5-2.5s1.1-2.5,2.5-2.5h4c1.4,0,2.5,1.1,2.5,2.5s-1.1,2.5-2.5,2.5H11z"/>
		<path class="st0" d="M15,33c0.6,0,1,0.4,1,1s-0.4,1-1,1h-4c-0.6,0-1-0.4-1-1s0.4-1,1-1H15 M15,30h-4c-2.2,0-4,1.8-4,4s1.8,4,4,4h4
			c2.2,0,4-1.8,4-4S17.2,30,15,30L15,30z"/>
	</g>
	<g>
		<path d="M23,36.5c-1.4,0-2.5-1.1-2.5-2.5s1.1-2.5,2.5-2.5h4c1.4,0,2.5,1.1,2.5,2.5s-1.1,2.5-2.5,2.5H23z"/>
		<path class="st0" d="M27,33c0.6,0,1,0.4,1,1s-0.4,1-1,1h-4c-0.6,0-1-0.4-1-1s0.4-1,1-1H27 M27,30h-4c-2.2,0-4,1.8-4,4s1.8,4,4,4h4
			c2.2,0,4-1.8,4-4S29.2,30,27,30L27,30z"/>
	</g>
	<g>
		<path d="M35,36.5c-1.4,0-2.5-1.1-2.5-2.5s1.1-2.5,2.5-2.5h4c1.4,0,2.5,1.1,2.5,2.5s-1.1,2.5-2.5,2.5H35z"/>
		<path class="st0" d="M39,33c0.6,0,1,0.4,1,1s-0.4,1-1,1h-4c-0.6,0-1-0.4-1-1s0.4-1,1-1H39 M39,30h-4c-2.2,0-4,1.8-4,4s1.8,4,4,4h4
			c2.2,0,4-1.8,4-4S41.2,30,39,30L39,30z"/>
	</g>
	<g>
		<path d="M11,42.5c-1.4,0-2.5-1.1-2.5-2.5s1.1-2.5,2.5-2.5h4c1.4,0,2.5,1.1,2.5,2.5s-1.1,2.5-2.5,2.5H11z"/>
		<path class="st0" d="M15,39c0.6,0,1,0.4,1,1s-0.4,1-1,1h-4c-0.6,0-1-0.4-1-1s0.4-1,1-1H15 M15,36h-4c-2.2,0-4,1.8-4,4s1.8,4,4,4h4
			c2.2,0,4-1.8,4-4S17.2,36,15,36L15,36z"/>
	</g>
	<g>
		<path d="M23,42.5c-1.4,0-2.5-1.1-2.5-2.5s1.1-2.5,2.5-2.5h4c1.4,0,2.5,1.1,2.5,2.5s-1.1,2.5-2.5,2.5H23z"/>
		<path class="st0" d="M27,39c0.6,0,1,0.4,1,1s-0.4,1-1,1h-4c-0.6,0-1-0.4-1-1s0.4-1,1-1H27 M27,36h-4c-2.2,0-4,1.8-4,4s1.8,4,4,4h4
			c2.2,0,4-1.8,4-4S29.2,36,27,36L27,36z"/>
	</g>
	<g>
		<path d="M35,42.5c-1.4,0-2.5-1.1-2.5-2.5s1.1-2.5,2.5-2.5h4c1.4,0,2.5,1.1,2.5,2.5s-1.1,2.5-2.5,2.5H35z"/>
		<path class="st0" d="M39,39c0.6,0,1,0.4,1,1s-0.4,1-1,1h-4c-0.6,0-1-0.4-1-1s0.4-1,1-1H39 M39,36h-4c-2.2,0-4,1.8-4,4s1.8,4,4,4h4
			c2.2,0,4-1.8,4-4S41.2,36,39,36L39,36z"/>
	</g>
	<g>
		<path d="M11,48.5c-1.4,0-2.5-1.1-2.5-2.5s1.1-2.5,2.5-2.5h4c1.4,0,2.5,1.1,2.5,2.5s-1.1,2.5-2.5,2.5H11z"/>
		<path class="st0" d="M15,45c0.6,0,1,0.4,1,1s-0.4,1-1,1h-4c-0.6,0-1-0.4-1-1s0.4-1,1-1H15 M15,42h-4c-2.2,0-4,1.8-4,4s1.8,4,4,4h4
			c2.2,0,4-1.8,4-4S17.2,42,15,42L15,42z"/>
	</g>
	<g>
		<path d="M23,48.5c-1.4,0-2.5-1.1-2.5-2.5s1.1-2.5,2.5-2.5h4c1.4,0,2.5,1.1,2.5,2.5s-1.1,2.5-2.5,2.5H23z"/>
		<path class="st0" d="M27,45c0.6,0,1,0.4,1,1s-0.4,1-1,1h-4c-0.6,0-1-0.4-1-1s0.4-1,1-1H27 M27,42h-4c-2.2,0-4,1.8-4,4s1.8,4,4,4h4
			c2.2,0,4-1.8,4-4S29.2,42,27,42L27,42z"/>
	</g>
	<g>
		<path d="M35,48.5c-1.4,0-2.5-1.1-2.5-2.5s1.1-2.5,2.5-2.5h4c1.4,0,2.5,1.1,2.5,2.5s-1.1,2.5-2.5,2.5H35z"/>
		<path class="st0" d="M39,45c0.6,0,1,0.4,1,1s-0.4,1-1,1h-4c-0.6,0-1-0.4-1-1s0.4-1,1-1H39 M39,42h-4c-2.2,0-4,1.8-4,4s1.8,4,4,4h4
			c2.2,0,4-1.8,4-4S41.2,42,39,42L39,42z"/>
	</g>
	<g>
		<path d="M23,8.1h-6c-0.6,0-1,0.4-1,1s0.4,1,1,1h6c0.6,0,1-0.4,1-1S23.6,8.1,23,8.1z"/>
	</g>
	<g>
		<path d="M35,8.1h-6c-0.6,0-1,0.4-1,1s0.4,1,1,1h6c0.6,0,1-0.4,1-1S35.6,8.1,35,8.1z"/>
	</g>
</g>
</svg>
