<!-- Generator: Adobe Illustrator 22.1.0, SVG Export Plug-In  -->
<svg version="1.1"
	 xmlns="http://www.w3.org/2000/svg" xmlns:xlink="http://www.w3.org/1999/xlink" xmlns:a="http://ns.adobe.com/AdobeSVGViewerExtensions/3.0/"
	 x="0px" y="0px" width="60.5px" height="66px" viewBox="0 0 60.5 66" style="enable-background:new 0 0 60.5 66;"
	 xml:space="preserve">
<style type="text/css">
	.st0{fill:#FFFFFF;}
</style>
<defs>
</defs>
<g>
	<path d="M16.5,64.5c-1.2,0-2.3-0.9-2.5-2.1L9.4,32.5H4c-1,0-1.9-0.6-2.3-1.6c-0.4-1-0.1-2,0.6-2.7l26.2-25c0.5-0.4,1.1-0.7,1.7-0.7
		s1.3,0.2,1.7,0.7l4.3,4.1V4c0-1.4,1.1-2.5,2.5-2.5h8c1.4,0,2.5,1.1,2.5,2.5v15.7l8.9,8.5c0.7,0.7,1,1.8,0.6,2.7
		c-0.4,1-1.3,1.6-2.3,1.6h-5.4l-4.7,29.9c-0.2,1.2-1.2,2.1-2.5,2.1H16.5z M41.9,59.5l4.2-27H14.4l4.2,27H41.9z M50.3,27.5l-20-19
		l-20,19H50.3z M44.3,15V6.5h-3v5.6L44.3,15z"/>
	<path class="st0" d="M46.8,3c0.6,0,1,0.4,1,1v16.4l9.4,8.9c0.3,0.3,0.4,0.7,0.2,1.1c-0.2,0.4-0.5,0.6-0.9,0.6h-6.6L45,62.2
		c-0.1,0.5-0.5,0.8-1,0.8H16.5c-0.5,0-0.9-0.4-1-0.8L10.6,31H4c-0.4,0-0.8-0.2-0.9-0.6C2.9,30,3,29.6,3.3,29.3l26.2-25
		C29.8,4.1,30,4,30.3,4s0.5,0.1,0.7,0.3l6.9,6.6V4c0-0.6,0.4-1,1-1H46.8 M45.8,18.5V5h-6v7.7L45.8,18.5 M6.5,29h5H49h5L30.3,6.4
		L6.5,29 M17.4,61h25.8l4.7-30H12.7L17.4,61 M46.8,0h-8c-2.2,0-3.9,1.7-4,3.8L33,2.1C32.3,1.4,31.3,1,30.3,1c-1,0-2,0.4-2.8,1.1
		l-26.2,25c-1.2,1.1-1.6,2.9-1,4.4C0.9,33,2.4,34,4,34h4.1l4.5,28.6c0.3,2,2,3.4,4,3.4H44c2,0,3.6-1.4,4-3.4L52.4,34h4.1
		c1.6,0,3.1-1,3.7-2.5c0.6-1.5,0.2-3.3-1-4.4l-8.4-8V4C50.8,1.8,49,0,46.8,0L46.8,0z M42.8,8v3.5V8L42.8,8z M14,26l16.3-15.5
		L46.5,26H14L14,26z M16.2,34h28.2l-3.7,24H19.9L16.2,34L16.2,34z"/>
</g>
</svg>
