<!-- Generator: Adobe Illustrator 22.1.0, SVG Export Plug-In  -->
<svg version="1.1"
	 xmlns="http://www.w3.org/2000/svg" xmlns:xlink="http://www.w3.org/1999/xlink" xmlns:a="http://ns.adobe.com/AdobeSVGViewerExtensions/3.0/"
	 x="0px" y="0px" width="60.5px" height="66px" viewBox="0 0 60.5 66" style="enable-background:new 0 0 60.5 66;"
	 xml:space="preserve">
<style type="text/css">
	.st0{fill:#FFFFFF;}
</style>
<defs>
</defs>
<g>
	<path d="M21.8,58c-0.7,0-1.3-0.3-1.8-0.7c-0.8-0.8-1-2-0.4-2.9l2.9-5.6c0.1-0.2,0.3-0.4,0.5-0.6l10.4-10.4c0.1-0.6,0.4-1.1,0.8-1.5
		c0.4-0.3,0.8-0.5,1.3-0.6l0.3-0.3c0.9-0.9,1.9-1.4,3.1-1.5c0.2,0,0.4,0,0.6,0c1.1,0,2.2,0.4,3,1.2c1.7,1.7,1.6,4.7-0.4,6.6
		l-0.6,0.6c-0.1,0.6-0.4,1.1-0.8,1.5c-0.4,0.3-0.8,0.5-1.2,0.6L29.2,54.4c-0.2,0.2-0.4,0.3-0.6,0.4l-5.6,2.9
		C22.6,57.9,22.2,58,21.8,58z"/>
	<path class="st0" d="M39.4,35.3c0.7,0,1.4,0.3,1.9,0.8c1.1,1.1,1,3.1-0.4,4.5l-1,1c0.1,0.3,0,0.7-0.3,1c-0.2,0.2-0.4,0.2-0.7,0.2
		c-0.1,0-0.1,0-0.2,0L28.1,53.3c-0.1,0.1-0.2,0.1-0.2,0.2l-5.6,2.9c-0.1,0.1-0.3,0.1-0.5,0.1c-0.3,0-0.5-0.1-0.7-0.3
		c-0.3-0.3-0.4-0.8-0.2-1.2l2.9-5.6c0-0.1,0.1-0.2,0.2-0.2l10.9-10.9c-0.1-0.4,0-0.7,0.3-1c0.2-0.2,0.4-0.2,0.6-0.2
		c0.1,0,0.2,0,0.3,0l0.8-0.8c0.6-0.6,1.4-1,2.2-1.1C39.2,35.3,39.3,35.3,39.4,35.3 M38.7,39.9l0.8-0.8c0.6-0.6,0.7-1.3,0.4-1.6
		c-0.1-0.1-0.3-0.2-0.5-0.2c-0.1,0-0.1,0-0.1,0c-0.4,0-0.7,0.2-1,0.5l-0.7,0.7L38.7,39.9 M28.5,50.1l8.7-8.7L36.1,40l-8.8,8.8
		L28.5,50.1 M24.1,53.2l2.7-1.4l0.3-0.3l-1.3-1.3l-0.3,0.3L24.1,53.2 M39.4,32.3c-0.2,0-0.5,0-0.7,0c-1.5,0.2-2.9,0.9-3.9,2l0,0
		c-0.5,0.2-1,0.4-1.5,0.8c-0.6,0.5-1,1.2-1.2,1.9L21.9,47.1c-0.3,0.3-0.5,0.6-0.7,1l-2.9,5.6c-0.8,1.6-0.5,3.4,0.7,4.7
		c0.8,0.8,1.8,1.2,2.8,1.2c0.6,0,1.3-0.2,1.8-0.5l5.6-2.9c0.4-0.2,0.7-0.4,1-0.7l9.9-9.9c0.5-0.2,1-0.4,1.5-0.8
		c0.6-0.5,1-1.2,1.2-1.9l0.3-0.3c2.5-2.5,2.7-6.4,0.4-8.7C42.4,32.8,40.9,32.3,39.4,32.3L39.4,32.3z"/>
</g>
<g>
	<path d="M16.5,64.5c-1.2,0-2.3-0.9-2.5-2.1L9.4,32.5H4c-1,0-1.9-0.6-2.3-1.6c-0.4-1-0.1-2,0.6-2.7l26.2-25c0.5-0.4,1.1-0.7,1.7-0.7
		s1.3,0.2,1.7,0.7l4.3,4.1V4c0-1.4,1.1-2.5,2.5-2.5h8c1.4,0,2.5,1.1,2.5,2.5v15.7l8.9,8.5c0.7,0.7,1,1.8,0.6,2.7
		c-0.4,1-1.3,1.6-2.3,1.6h-5.4l-4.7,29.9c-0.2,1.2-1.2,2.1-2.5,2.1H16.5z M41.9,59.5l4.2-27H14.4l4.2,27H41.9z M50.3,27.5l-20-19
		l-20,19H50.3z M44.3,15V6.5h-3v5.6L44.3,15z"/>
	<path class="st0" d="M46.8,3c0.6,0,1,0.4,1,1v16.4l9.4,8.9c0.3,0.3,0.4,0.7,0.2,1.1c-0.2,0.4-0.5,0.6-0.9,0.6h-6.6L45,62.2
		c-0.1,0.5-0.5,0.8-1,0.8H16.5c-0.5,0-0.9-0.4-1-0.8L10.6,31H4c-0.4,0-0.8-0.2-0.9-0.6C2.9,30,3,29.6,3.3,29.3l26.2-25
		C29.8,4.1,30,4,30.3,4s0.5,0.1,0.7,0.3l6.9,6.6V4c0-0.6,0.4-1,1-1H46.8 M45.8,18.5V5h-6v7.7L45.8,18.5 M6.5,29h5H49h5L30.3,6.4
		L6.5,29 M17.4,61h25.8l4.7-30H12.7L17.4,61 M46.8,0h-8c-2.2,0-3.9,1.7-4,3.8L33,2.1C32.3,1.4,31.3,1,30.3,1c-1,0-2,0.4-2.8,1.1
		l-26.2,25c-1.2,1.1-1.6,2.9-1,4.4C0.9,33,2.4,34,4,34h4.1l4.5,28.6c0.3,2,2,3.4,4,3.4H44c2,0,3.6-1.4,4-3.4L52.4,34h4.1
		c1.6,0,3.1-1,3.7-2.5c0.6-1.5,0.2-3.3-1-4.4l-8.4-8V4C50.8,1.8,49,0,46.8,0L46.8,0z M42.8,8v3.5V8L42.8,8z M14,26l16.3-15.5
		L46.5,26H14L14,26z M16.2,34h28.2l-3.7,24H19.9L16.2,34L16.2,34z"/>
</g>
</svg>
