<!-- Generator: Adobe Illustrator 22.1.0, SVG Export Plug-In  -->
<svg version="1.1"
	 xmlns="http://www.w3.org/2000/svg" xmlns:xlink="http://www.w3.org/1999/xlink" xmlns:a="http://ns.adobe.com/AdobeSVGViewerExtensions/3.0/"
	 x="0px" y="0px" width="56.5px" height="31.4px" viewBox="0 0 56.5 31.4" style="enable-background:new 0 0 56.5 31.4;"
	 xml:space="preserve">
<style type="text/css">
	.st0{fill:#FFFFFF;}
</style>
<defs>
</defs>
<path class="st0" d="M54.8,3.8L27.3,0c-0.1,0-0.2,0-0.3,0c-0.1,0-0.2,0-0.3,0l-25,3.8C0.8,3.9,0,4.7,0,5.7s0.6,1.8,1.5,2L9,9.6
	C8.9,9.8,8.8,10,8.8,10.2v15.5c0,0.3,0.1,0.5,0.3,0.7c3.5,3.7,11.5,5,17.7,5s14.2-1.3,17.7-5c0.2-0.2,0.3-0.4,0.3-0.7V10.2
	c0-0.1,0-0.2,0-0.2l1.8-0.4l4.3,0.5v14.1c0,0.6,0.4,1,1,1s1-0.4,1-1v-15c0-0.4-0.3-0.8-0.6-0.9l2.8-0.6c0.9-0.2,1.6-1.1,1.6-2
	S55.7,3.9,54.8,3.8z M42.8,25.3c-2.7,2.5-8.9,4.1-16,4.1s-13.3-1.6-16-4.1V10.2c0-0.1,0-0.2-0.1-0.3l15.8,3.9c0.2,0,0.3,0.1,0.5,0.1
	c0.1,0,0.3,0,0.4,0l15.3-3.5V25.3z M46.4,7.6L27.1,5.3c-0.5-0.1-1,0.3-1.1,0.9c-0.1,0.5,0.3,1,0.9,1.1l13.7,1.7L27,12L2,5.8L27,2
	l27.5,3.8L46.4,7.6z"/>
</svg>
