<!-- Generator: Adobe Illustrator 22.1.0, SVG Export Plug-In  -->
<svg version="1.1"
	 xmlns="http://www.w3.org/2000/svg" xmlns:xlink="http://www.w3.org/1999/xlink" xmlns:a="http://ns.adobe.com/AdobeSVGViewerExtensions/3.0/"
	 x="0px" y="0px" width="48px" height="58px" viewBox="0 0 48 58" style="enable-background:new 0 0 48 58;" xml:space="preserve">
<style type="text/css">
	.st0{fill:#FFFFFF;}
</style>
<defs>
</defs>
<g>
	<path class="st0" d="M1,0C0.4,0,0,0.4,0,1v56c0,0.6,0.4,1,1,1s1-0.4,1-1V1C2,0.4,1.6,0,1,0z"/>
	<path class="st0" d="M47.1,6.5l-40-5c-0.3,0-0.6,0.1-0.8,0.2C6.1,1.9,6,2.2,6,2.5V30c0,0.3,0.1,0.6,0.3,0.8C6.5,30.9,6.8,31,7,31
		c0,0,0.1,0,0.1,0l40-5c0.5-0.1,0.9-0.5,0.9-1V7.5C48,7,47.6,6.6,47.1,6.5z M24,5.6l6,0.8v19.7l-6,0.8V5.6z M22,27.1l-6,0.8V4.6
		l6,0.8V27.1z M32,6.6l6,0.8v17.7l-6,0.8V6.6z M8,3.6l6,0.8v23.7l-6,0.8V3.6z M46,24.1l-6,0.8V7.6l6,0.8V24.1z"/>
</g>
</svg>
