<!-- Generator: Adobe Illustrator 22.1.0, SVG Export Plug-In  -->
<svg version="1.1"
	 xmlns="http://www.w3.org/2000/svg" xmlns:xlink="http://www.w3.org/1999/xlink" xmlns:a="http://ns.adobe.com/AdobeSVGViewerExtensions/3.0/"
	 x="0px" y="0px" width="74.5px" height="59.5px" viewBox="0 0 74.5 59.5" style="enable-background:new 0 0 74.5 59.5;"
	 xml:space="preserve">
<style type="text/css">
	.st0{fill:#FFFFFF;}
</style>
<defs>
</defs>
<g>
	<path class="st0" d="M74.5,17.2c0-1.8-0.3-3.6-0.9-5.4c-0.1-0.3-0.3-0.5-0.5-0.6c-5-2.5-10.3-3.8-15.9-3.8c-0.1,0-0.2,0-0.3,0
		C51.5,2.7,44.6,0,37.2,0C29.9,0,23,2.7,17.5,7.5c-0.1,0-0.2,0-0.3,0c-5.5,0-10.9,1.3-15.9,3.8c-0.2,0.1-0.4,0.3-0.5,0.6
		C0.3,13.6,0,15.4,0,17.2c0,5.9,3,11.2,7.6,14.3c0.9,15.7,13.9,28,29.7,28c15.8,0,28.8-12.3,29.7-28C71.5,28.4,74.5,23.2,74.5,17.2z
		 M56.1,32.4C48.2,31.8,42,25.3,42,17.2c0-1.5,0.2-2.9,0.6-4.4c4.6-2.3,9.5-3.4,14.6-3.4c3.7,0,7.2,0.6,10.6,1.8L56.1,32.4z M37.2,2
		c6.1,0,12,2,16.8,5.7c-4.4,0.4-8.7,1.6-12.7,3.6c-0.2,0.1-0.4,0.3-0.5,0.6c-0.2,0.6-0.3,1.2-0.5,1.8c-0.8-0.7-1.9-1.2-3.1-1.2
		c-1.2,0-2.3,0.5-3.1,1.2c-0.1-0.6-0.3-1.2-0.5-1.8c-0.1-0.3-0.3-0.5-0.5-0.6c-4-2-8.3-3.2-12.7-3.6C25.3,4,31.1,2,37.2,2z
		 M31.9,12.9c0.4,1.4,0.6,2.9,0.6,4.4c0,8-6.3,14.6-14.2,15.2L29.8,12C30.5,12.3,31.2,12.6,31.9,12.9z M2,17.2
		c0-1.5,0.2-2.9,0.6-4.3c4.6-2.3,9.5-3.4,14.6-3.4c3.7,0,7.2,0.6,10.6,1.8L16.1,32.4C8.2,31.8,2,25.3,2,17.2z M37.2,57.5
		c-14.3,0-26.1-10.7-27.6-24.8c2,1,4.3,1.6,6.7,1.7c0.1,0,0.2,0,0.2,0c0,0,0.1,0,0.1,0c0.2,0,0.4,0,0.5,0c9.5,0,17.2-7.7,17.2-17.3
		c0-1.5,1.2-2.7,2.8-2.7s2.8,1.2,2.8,2.7c0,9.2,7.3,16.8,16.4,17.2c0.1,0,0.2,0,0.2,0c0,0,0.1,0,0.1,0c0.2,0,0.4,0,0.5,0
		c2.7,0,5.3-0.7,7.6-1.8C63.4,46.8,51.6,57.5,37.2,57.5z M58.3,32.4L69.8,12c0.7,0.3,1.4,0.6,2.1,0.9c0.4,1.4,0.6,2.9,0.6,4.3
		C72.5,25.3,66.2,31.9,58.3,32.4z"/>
	<path class="st0" d="M55.3,40h-36c-0.4,0-0.7,0.2-0.9,0.5s-0.2,0.7,0,1C22.5,48.1,29.6,52,37.2,52c7.7,0,14.7-3.9,18.9-10.5
		c0.2-0.3,0.2-0.7,0-1S55.6,40,55.3,40z M37.2,50c-6.4,0-12.3-3-16.1-8h32.2C49.5,47,43.6,50,37.2,50z"/>
</g>
</svg>
