<!-- Generator: Adobe Illustrator 22.1.0, SVG Export Plug-In  -->
<svg version="1.1"
	 xmlns="http://www.w3.org/2000/svg" xmlns:xlink="http://www.w3.org/1999/xlink" xmlns:a="http://ns.adobe.com/AdobeSVGViewerExtensions/3.0/"
	 x="0px" y="0px" width="42.3px" height="34.6px" viewBox="0 0 42.3 34.6" style="enable-background:new 0 0 42.3 34.6;"
	 xml:space="preserve">
<defs>
</defs>
<path d="M41.1,0.8c0,0-2.8,2-5.4,1.8c0,0-4.3-4.6-10.4-1.5c-6.1,3-5.4,8.4-4,9.5c0,0-9.6,1.7-19-9.1c0,0-3,8.1,3,12
	c0,0-1.2,0.4-4.4-0.9c0,0,0.1,6.3,7.1,8.2c0,0-1.6,1-3.6,0.6c0,0,1.7,5.6,8,5.7c0,0-1.5,3.9-12.4,4.1c0,0,17.8,10.1,31.5-4.4
	C39.8,17.2,38,8.3,38,8.3s2-0.6,4.4-3.9c0,0-3.3,1-4.9,1.1C37.4,5.4,40,4.3,41.1,0.8z"/>
</svg>
