<!-- Generator: Adobe Illustrator 22.1.0, SVG Export Plug-In  -->
<svg version="1.1"
	 xmlns="http://www.w3.org/2000/svg" xmlns:xlink="http://www.w3.org/1999/xlink" xmlns:a="http://ns.adobe.com/AdobeSVGViewerExtensions/3.0/"
	 x="0px" y="0px" width="38.2px" height="36.1px" viewBox="0 0 38.2 36.1" style="enable-background:new 0 0 38.2 36.1;"
	 xml:space="preserve">
<defs>
</defs>
<path d="M0.2,36.1H8V10.9H0.2V36.1z M4.2,0C1.6,0,0,1.7,0,3.9c0,2.2,1.6,3.9,4.1,3.9c2.6,0,4.2-1.7,4.2-3.9C8.2,1.7,6.7,0,4.2,0z
	 M29.2,10.3c-4.2,0-6.7,2.4-7.8,4.1h-0.2l-0.4-3.5h-6.8c0.1,2.3,0.2,4.9,0.2,8v17.1h7.8V21.6c0-0.7,0.1-1.4,0.3-2
	c0.6-1.4,1.9-2.9,4-2.9c2.8,0,4,2.2,4,5.5v13.9h7.8V21.2C38.2,13.8,34.3,10.3,29.2,10.3z"/>
</svg>
