<!-- Generator: Adobe Illustrator 22.1.0, SVG Export Plug-In  -->
<svg version="1.1"
	 xmlns="http://www.w3.org/2000/svg" xmlns:xlink="http://www.w3.org/1999/xlink" xmlns:a="http://ns.adobe.com/AdobeSVGViewerExtensions/3.0/"
	 x="0px" y="0px" width="169.7px" height="169.7px" viewBox="0 0 169.7 169.7" style="enable-background:new 0 0 169.7 169.7;"
	 xml:space="preserve">
<defs>
</defs>
<g>
	<path d="M56.6,84.9c0-15.6,12.7-28.3,28.3-28.3s28.3,12.7,28.3,28.3s-12.7,28.3-28.3,28.3C69.2,113.1,56.6,100.5,56.6,84.9
		 M41.3,84.9c0,24.1,19.5,43.6,43.6,43.6s43.6-19.5,43.6-43.6s-19.5-43.6-43.6-43.6S41.3,60.8,41.3,84.9 M120,39.6
		c0,5.6,4.6,10.2,10.2,10.2c5.6,0,10.2-4.6,10.2-10.2c0-5.6-4.6-10.2-10.2-10.2C124.5,29.4,120,33.9,120,39.6 M50.6,153.9
		c-8.3-0.4-12.8-1.8-15.8-2.9c-4-1.5-6.8-3.4-9.8-6.3c-3-3-4.8-5.8-6.3-9.8c-1.2-3-2.5-7.5-2.9-15.8c-0.4-8.9-0.5-11.6-0.5-34.3
		s0.1-25.3,0.5-34.3c0.4-8.3,1.8-12.8,2.9-15.8c1.5-4,3.4-6.8,6.3-9.8c3-3,5.8-4.8,9.8-6.3c3-1.2,7.5-2.5,15.8-2.9
		c8.9-0.4,11.6-0.5,34.3-0.5c22.7,0,25.3,0.1,34.3,0.5c8.3,0.4,12.8,1.8,15.8,2.9c4,1.5,6.8,3.4,9.8,6.3c3,3,4.8,5.8,6.3,9.8
		c1.2,3,2.5,7.5,2.9,15.8c0.4,9,0.5,11.6,0.5,34.3c0,22.7-0.1,25.3-0.5,34.3c-0.4,8.3-1.8,12.8-2.9,15.8c-1.5,4-3.4,6.8-6.3,9.8
		c-3,3-5.8,4.8-9.8,6.3c-3,1.2-7.5,2.5-15.8,2.9c-8.9,0.4-11.6,0.5-34.3,0.5C62.2,154.4,59.5,154.3,50.6,153.9 M49.9,0.5
		c-9,0.4-15.2,1.8-20.6,3.9c-5.6,2.2-10.3,5.1-15,9.8c-4.7,4.7-7.6,9.4-9.8,15c-2.1,5.4-3.5,11.6-3.9,20.6c-0.4,9-0.5,11.9-0.5,35
		s0.1,25.9,0.5,35c0.4,9,1.8,15.2,3.9,20.6c2.2,5.6,5.1,10.3,9.8,15c4.7,4.7,9.4,7.6,15,9.8c5.4,2.1,11.6,3.5,20.6,3.9
		c9.1,0.4,11.9,0.5,35,0.5c23.1,0,25.9-0.1,35-0.5c9-0.4,15.2-1.8,20.6-3.9c5.6-2.2,10.3-5.1,15-9.8c4.7-4.7,7.6-9.5,9.8-15
		c2.1-5.4,3.5-11.6,3.9-20.6c0.4-9.1,0.5-11.9,0.5-35s-0.1-25.9-0.5-35c-0.4-9-1.8-15.2-3.9-20.6c-2.2-5.6-5.1-10.3-9.8-15
		c-4.7-4.7-9.5-7.6-15-9.8c-5.4-2.1-11.6-3.5-20.6-3.9c-9-0.4-11.9-0.5-35-0.5C61.8,0,58.9,0.1,49.9,0.5"/>
</g>
</svg>
