<!-- Generator: Adobe Illustrator 22.1.0, SVG Export Plug-In  -->
<svg version="1.1"
	 xmlns="http://www.w3.org/2000/svg" xmlns:xlink="http://www.w3.org/1999/xlink" xmlns:a="http://ns.adobe.com/AdobeSVGViewerExtensions/3.0/"
	 x="0px" y="0px" width="48px" height="41.9px" viewBox="0 0 48 41.9" style="enable-background:new 0 0 48 41.9;"
	 xml:space="preserve">
<style type="text/css">
	.st0{fill:#FFFFFF;}
</style>
<defs>
</defs>
<path class="st0" d="M47.2,16l-9.4-2.4c0.3-1.2,0.6-2.4,0.6-3.6c0-5.6-4.4-10-10-10s-10,4.4-10,10c0,1.7,0.4,3.4,1,4.9l-4.2,1.1
	L1.3,12c-0.3-0.1-0.6,0-0.9,0.2C0.1,12.3,0,12.6,0,12.9v24c0,0.4,0.3,0.8,0.7,1l14.1,4c0.2,0,0.3,0.1,0.5,0L31.2,38l15.5,3.9
	c0.1,0,0.2,0,0.2,0c0.2,0,0.4-0.1,0.6-0.2c0.2-0.2,0.4-0.5,0.4-0.8v-24C48,16.5,47.7,16.1,47.2,16z M28.5,2c4.5,0,8,3.5,8,8
	c0,6.3-6,11.7-8,13.3c-1.9-1.6-8-7-8-13.3C20.5,5.5,24,2,28.5,2z M27.9,25.3c0.2,0.1,0.4,0.2,0.6,0.2s0.4-0.1,0.6-0.2
	c0.1-0.1,0.4-0.3,1-0.8v11.7l-14,3.5V18.4c0-0.2-0.1-0.4-0.2-0.6l4.5-1.1C23,21.7,27.6,25.1,27.9,25.3z M2,14.2l12.3,3.5
	c-0.2,0.2-0.3,0.4-0.3,0.7v21.2L2,36.2V14.2z M46,39.6l-14-3.5V22.7c1.8-1.7,3.9-4.3,5.2-7.3l8.8,2.2V39.6z"/>
<path class="st0" d="M32.5,9.9c0-2.2-1.8-4-4-4s-4,1.8-4,4s1.8,4,4,4S32.5,12.1,32.5,9.9z M26.5,9.9c0-1.1,0.9-2,2-2
	c1.1,0,2,0.9,2,2s-0.9,2-2,2C27.4,11.9,26.5,11,26.5,9.9z"/>
</svg>
