<!-- Generator: Adobe Illustrator 22.1.0, SVG Export Plug-In  -->
<svg version="1.1"
	 xmlns="http://www.w3.org/2000/svg" xmlns:xlink="http://www.w3.org/1999/xlink" xmlns:a="http://ns.adobe.com/AdobeSVGViewerExtensions/3.0/"
	 x="0px" y="0px" width="34px" height="48.3px" viewBox="0 0 34 48.3" style="enable-background:new 0 0 34 48.3;"
	 xml:space="preserve">
<style type="text/css">
	.st0{fill:none;stroke:#FFFFFF;stroke-width:2;stroke-linecap:round;stroke-linejoin:round;stroke-miterlimit:10;}
</style>
<defs>
</defs>
<path class="st0" d="M22,15c0,2.8-2.2,5-5,5c-2.8,0-5-2.2-5-5c0-2.8,2.2-5,5-5C19.8,10,22,12.2,22,15z"/>
<path class="st0" d="M33,17c0-8.8-7.2-16-16-16C8.2,1,1,8.2,1,17c0,5.1,2.8,9.2,6.1,12.5c4.7,4.8,9.9,16.1,9.9,17.8
	c0-1.6,3-12.1,9-17.1C29.9,26.9,33,22.5,33,17z"/>
</svg>
